# xmcd CD database file
#
# Track frame offsets:
#	150
#	18642
#	36442
#	50487
#	65797
#	79230
#	86080
#	102597
#	117880
#	135717
#	149850
#
# Disc length: 2218 seconds
#
# Revision: 1
# Processed by: cddbd v1.5.2PL0 Copyright (c) Steve Scherf et al.
# Submitted via: CDex 1.51
#
DISCID=ac08a80b
DTITLE=Cake - Comfort Eagle
DYEAR=2001
DGENRE=Alternative Rock
TTITLE0=Opera Singer
TTITLE1=Meanwhile, Rick James ...
TTITLE2=Shadow Stabbing
TTITLE3=Short Skirt/Long Jacket
TTITLE4=Comissioning a Symphony in C
TTITLE5=Arco Arena
TTITLE6=Comfort Eagle
TTITLE7=Long Line of Cars
TTITLE8=Love You Madly
TTITLE9=Pretty Pink Ribbon
TTITLE10=World of Two
EXTD=YEAR: 2001
EXTT0=
EXTT1=
EXTT2=
EXTT3=
EXTT4=
EXTT5=
EXTT6=
EXTT7=
EXTT8=
EXTT9=
EXTT10=
PLAYORDER=
